<svg width="22" height="22" viewBox="0 0 22 22" fill="none" xmlns="http://www.w3.org/2000/svg">
<g clip-path="url(#clip0_1_1527)">
<path d="M21.2143 2.35266H0.785714C0.351116 2.35266 0 2.70378 0 3.13838V18.8527C0 19.2873 0.351116 19.6384 0.785714 19.6384H21.2143C21.6489 19.6384 22 19.2873 22 18.8527V3.13838C22 2.70378 21.6489 2.35266 21.2143 2.35266ZM20.2321 17.8705H1.76786V16.8908L5.16853 12.8567L8.85402 17.2272L14.5873 10.4308L20.2321 17.1241V17.8705ZM20.2321 14.6835L14.7371 8.16695C14.6585 8.07364 14.5161 8.07364 14.4375 8.16695L8.85402 14.7866L5.3183 10.5953C5.23973 10.502 5.09732 10.502 5.01875 10.5953L1.76786 14.4502V4.12052H20.2321V14.6835ZM5.89286 9.62052C6.17661 9.62052 6.45758 9.56463 6.71973 9.45604C6.98188 9.34746 7.22007 9.1883 7.42071 8.98766C7.62135 8.78702 7.78051 8.54882 7.8891 8.28667C7.99768 8.02452 8.05357 7.74355 8.05357 7.4598C8.05357 7.17606 7.99768 6.89508 7.8891 6.63294C7.78051 6.37078 7.62135 6.13259 7.42071 5.93195C7.22007 5.73131 6.98188 5.57215 6.71973 5.46356C6.45758 5.35498 6.17661 5.29909 5.89286 5.29909C5.3198 5.29909 4.77021 5.52674 4.365 5.93195C3.95979 6.33716 3.73214 6.88675 3.73214 7.4598C3.73214 8.03286 3.95979 8.58245 4.365 8.98766C4.77021 9.39287 5.3198 9.62052 5.89286 9.62052ZM5.89286 6.7723C6.27344 6.7723 6.58036 7.07922 6.58036 7.4598C6.58036 7.84038 6.27344 8.1473 5.89286 8.1473C5.51228 8.1473 5.20536 7.84038 5.20536 7.4598C5.20536 7.07922 5.51228 6.7723 5.89286 6.7723Z" fill="black"/>
</g>
<defs>
<clipPath id="clip0_1_1527">
<rect width="22" height="22" fill="white"/>
</clipPath>
</defs>
</svg>
