<svg width="22" height="22" viewBox="0 0 22 22" fill="none" xmlns="http://www.w3.org/2000/svg">
<path d="M18.9671 11.2659C18.9305 11.3484 18.8846 11.4217 18.8205 11.4859L16.5288 13.7776C16.3913 13.9151 16.2171 13.9792 16.043 13.9792C15.8688 13.9792 15.6946 13.9151 15.5571 13.7776C15.2913 13.5117 15.2913 13.0717 15.5571 12.8059L16.6755 11.6876H11.6888V16.6742L12.8071 15.5559C13.073 15.2901 13.513 15.2901 13.7788 15.5559C14.0446 15.8217 14.0446 16.2617 13.7788 16.5276L11.4871 18.8192C11.423 18.8834 11.3496 18.9292 11.2671 18.9659C11.1846 19.0026 11.093 19.0209 11.0013 19.0209C10.9096 19.0209 10.818 19.0026 10.7355 18.9659C10.653 18.9292 10.5796 18.8834 10.5155 18.8192L8.2238 16.5276C7.95797 16.2617 7.95797 15.8217 8.2238 15.5559C8.48964 15.2901 8.92964 15.2901 9.19547 15.5559L10.3138 16.6742V11.6876H5.32714L6.44547 12.8059C6.7113 13.0717 6.7113 13.5117 6.44547 13.7776C6.30797 13.9151 6.1338 13.9792 5.95964 13.9792C5.78547 13.9792 5.6113 13.9151 5.4738 13.7776L3.18214 11.4859C3.11797 11.4217 3.07214 11.3484 3.03547 11.2659C2.96214 11.1009 2.96214 10.9084 3.03547 10.7434C3.07214 10.6609 3.11797 10.5876 3.18214 10.5234L5.4738 8.23175C5.73963 7.96591 6.17964 7.96591 6.44547 8.23175C6.7113 8.49758 6.7113 8.93758 6.44547 9.20341L5.32714 10.3217H10.3138V5.32591L9.19547 6.44425C8.92964 6.71008 8.48964 6.71008 8.2238 6.44425C7.95797 6.17841 7.95797 5.73841 8.2238 5.47258L10.5155 3.18091C10.5796 3.11675 10.653 3.07091 10.7355 3.03425C10.9005 2.96091 11.093 2.96091 11.258 3.03425C11.3405 3.07091 11.4138 3.11675 11.478 3.18091L13.7696 5.47258C14.0355 5.73841 14.0355 6.17841 13.7696 6.44425C13.6321 6.58175 13.458 6.64591 13.2838 6.64591C13.1096 6.64591 12.9355 6.58175 12.798 6.44425L11.6796 5.32591V10.3126H16.6663L15.548 9.19425C15.2821 8.92841 15.2821 8.48841 15.548 8.22258C15.8138 7.95675 16.2538 7.95675 16.5196 8.22258L18.8113 10.5142C18.8755 10.5784 18.9213 10.6517 18.958 10.7342C19.0313 10.8992 19.0313 11.0917 18.958 11.2567L18.9671 11.2659Z" fill="black"/>
</svg>
