<svg width="20" height="20" viewBox="0 0 20 20" fill="none" xmlns="http://www.w3.org/2000/svg">
<path d="M6.27002 1.96698H6.06995C6.17995 1.96698 6.27002 1.879 6.27002 1.771V1.96698H13.73V1.771C13.73 1.879 13.8201 1.96698 13.9301 1.96698H13.73V3.73499H15.5V1.771C15.5 0.903996 14.7901 0.198975 13.9301 0.198975H6.06995C5.19995 0.198975 4.5 0.903996 4.5 1.771V3.73499H6.27002V1.96698ZM18.64 3.73499H1.35999C0.919985 3.73499 0.569946 4.086 0.569946 4.521V5.30701C0.569946 5.41501 0.66002 5.50299 0.77002 5.50299H2.25L2.85999 18.345C2.89999 19.182 3.59005 19.842 4.43005 19.842H15.5699C16.4099 19.842 17.1 19.184 17.14 18.345L17.75 5.50299H19.23C19.34 5.50299 19.4301 5.41501 19.4301 5.30701V4.521C19.4301 4.086 19.08 3.73499 18.64 3.73499ZM15.38 18.074H4.62L4.02002 5.50299H15.98L15.38 18.074Z" fill="black"/>
</svg>
