<svg width="18" height="18" viewBox="0 0 18 18" fill="none" xmlns="http://www.w3.org/2000/svg">
<path d="M10.3871 8.99881L17.4183 0.617556C17.5362 0.47827 17.4371 0.266663 17.2549 0.266663H15.1174C14.9916 0.266663 14.871 0.322913 14.788 0.419341L8.98887 7.33273L3.18977 0.419341C3.10941 0.322913 2.98887 0.266663 2.8603 0.266663H0.722801C0.540658 0.266663 0.441551 0.47827 0.559408 0.617556L7.59066 8.99881L0.559408 17.3801C0.533007 17.4111 0.51607 17.4491 0.510607 17.4895C0.505143 17.5298 0.511383 17.571 0.528587 17.6079C0.54579 17.6448 0.573234 17.6761 0.60766 17.6979C0.642086 17.7197 0.682048 17.7312 0.722801 17.7309H2.8603C2.98619 17.7309 3.10673 17.6747 3.18977 17.5783L8.98887 10.6649L14.788 17.5783C14.8683 17.6747 14.9889 17.7309 15.1174 17.7309H17.2549C17.4371 17.7309 17.5362 17.5193 17.4183 17.3801L10.3871 8.99881Z" fill="#FF4D4F"/>
</svg>
